<svg xmlns="http://www.w3.org/2000/svg" viewBox="0 0 712 264" preserveAspectRatio="xMinYMid meet" aria-hidden="true" class="sc-ieecCq sc-dJjYzT kuzDUZ epiwTQ"><linearGradient id="Degradado1" x1="127.14" y1="71.06" x2="180.74" y2="102.01" gradientUnits="userSpaceOnUse"><stop offset="0" stop-color="#f3b444"></stop><stop offset="1" stop-color="#f15480"></stop></linearGradient><linearGradient id="Degradado2" x1="179.91" y1="160.94" x2="179.91" y2="101.73" gradientUnits="userSpaceOnUse"><stop offset="0" stop-color="#b157ce"></stop><stop offset="1" stop-color="#f15480"></stop></linearGradient><linearGradient id="Degradado3" x1="128.39" y1="188.21" x2="181.25" y2="157.69" gradientUnits="userSpaceOnUse"><stop offset="0" stop-color="#5da5fb"></stop><stop offset="1" stop-color="#b157ce"></stop></linearGradient><linearGradient id="Degradado4" x1="79.1" y1="157.2" x2="130.7" y2="186.99" gradientUnits="userSpaceOnUse"><stop offset="0" stop-color="#74e6a7"></stop><stop offset="1" stop-color="#5da5fb"></stop></linearGradient><linearGradient id="Degradado5" x1="81.29" y1="99.42" x2="81.29" y2="158.71" gradientUnits="userSpaceOnUse"><stop offset="0" stop-color="#c8ed5c"></stop><stop offset="1" stop-color="#74e6a7"></stop></linearGradient><linearGradient id="Degradado6" x1="81.87" y1="101.2" x2="131.39" y2="72.61" gradientUnits="userSpaceOnUse"><stop offset="0" stop-color="#c8ed5c"></stop><stop offset="1" stop-color="#f3b444"></stop></linearGradient><circle cx="132" cy="132" r="111.98" class="OuterCircle-sc-hqi7ca jZAolZ"></circle><g class="GradientBackground-sc-2war42 dTHAxS"><path style="fill: url(&quot;#Degradado1&quot;);" d="M219.32,83.6A99.79,99.79,0,0,0,132,32.14V132Z"></path><path style="fill: url(&quot;#Degradado2&quot;);" d="M217.58,183.42a99.81,99.81,0,0,0,.9-101.35L132,132Z"></path><path style="fill: url(&quot;#Degradado3&quot;);" d="M130.26,231.82a99.78,99.78,0,0,0,88.22-49.89L132,132Z"></path><path style="fill: url(&quot;#Degradado4&quot;);" d="M44.68,180.4A99.79,99.79,0,0,0,132,231.86V132Z"></path><path style="fill: url(&quot;#Degradado5&quot;);" d="M46.42,80.58a99.81,99.81,0,0,0-.9,101.35L132,132Z"></path><path style="fill: url(&quot;#Degradado6&quot;);" d="M133.74,32.18A99.78,99.78,0,0,0,45.52,82.07L132,132Z"></path></g><circle cx="132" cy="132" r="81.73" class="InnerCircle-sc-1iratp2 zXlOI"></circle><g class="Icon-sc-248l7c"><path d="M180.3,130h0a9.62,9.62,0,0,0-9.44,7.72A39.19,39.19,0,1,1,145.32,93a9.34,9.34,0,0,0,11.23-4l.42-.71a9.28,9.28,0,0,0-5-13.44,58.5,58.5,0,1,0,37.8,66.53A9.62,9.62,0,0,0,180.3,130Z" class="Arc-sc-xy4lzg jKRKPb"></path><circle cx="148.15" cy="138.69" r="12.74" class="Dot-sc-1vcsi8h SvmBu"></circle></g><g class="Text-sc-8wojgr"><path d="M685.93,91.75a16,16,0,0,0-10.79-4.15,15.78,15.78,0,0,0-8.22,2.33,15.3,15.3,0,0,0-6.14,7.3l-9.3,20.71-9.46-21a15.57,15.57,0,0,0-14.41-9.34A16.79,16.79,0,0,0,621.1,89V81.21a15.36,15.36,0,0,0-5.42-12.14,16.75,16.75,0,0,0-10.85-3.76,16.52,16.52,0,0,0-10.93,3.88,14.49,14.49,0,0,0-2.16,2.34,14.38,14.38,0,0,0-2.35-2.46,16.74,16.74,0,0,0-10.84-3.76,16.5,16.5,0,0,0-10.93,3.88,15.46,15.46,0,0,0-5.22,12V99.29a26.35,26.35,0,0,0-2.51-3.06c-5.79-6-14.09-9-24.7-9a56.11,56.11,0,0,0-13.38,1.68,51.67,51.67,0,0,0-12.31,4.61l-.13.07-.13.08a21.27,21.27,0,0,0-5.72,4.66,14.82,14.82,0,0,0-4.06-6.6,17.18,17.18,0,1,0-22.56,0,15.32,15.32,0,0,0-4.79,10.15c-5-9.49-14.24-14.69-27.08-14.69a34.69,34.69,0,0,0-15.61,3.53,15.94,15.94,0,0,0-10-3.29,16.27,16.27,0,0,0-11.3,4.34,15.49,15.49,0,0,0-4.84,10.3,33.92,33.92,0,0,0-3-4c-6.47-7.15-15.53-10.93-26.21-10.93a38,38,0,0,0-19.85,5.3,35.63,35.63,0,0,0-8.8,7.5,15.39,15.39,0,0,0-4.23-8,15.91,15.91,0,0,0-11.56-4.59,16.25,16.25,0,0,0-10.12,3.28,34.16,34.16,0,0,0-15.58-3.52,35,35,0,0,0-32.05,19.52,43.34,43.34,0,0,0-4.48,19.91,44,44,0,0,0,4.38,19.85,34.84,34.84,0,0,0,9.67,12,12.26,12.26,0,0,0-3.75,4.79l-2.27,5.14a12.24,12.24,0,0,0,5.15,15.64c7.32,4.17,16.31,6.28,26.73,6.28,12,0,21.46-3.26,28.17-9.69,6.18-5.91,9.58-14.12,10.17-24.38.37.41.71.83,1.1,1.22,7.32,7.39,17.17,11.14,29.26,11.14A47.49,47.49,0,0,0,388.18,167a48.09,48.09,0,0,0,11.67-4.74,21,21,0,0,0,3.73-2.65,11.68,11.68,0,0,0,11.29,8.81h9a11.7,11.7,0,0,0,11.69-11.68V124.14c0-3.61,1.16-4.8,1.59-5.25s1.49-1.53,4.58-1.53a7.66,7.66,0,0,1,1.58.14,13.7,13.7,0,0,1,.49,4.23v35a11.7,11.7,0,0,0,11.69,11.68h9A11.64,11.64,0,0,0,474,163.5a11.46,11.46,0,0,0,9.37,4.89h9.5a11.45,11.45,0,0,0,11.42-11,28.47,28.47,0,0,0,9.9,7.9,34.12,34.12,0,0,0,15,3.38,31.15,31.15,0,0,0,12.34-2.41,11.89,11.89,0,0,0,6.85,2.16h8.07a11.89,11.89,0,0,0,8.88-4,11.82,11.82,0,0,0,8.85,4h8.67a11.78,11.78,0,0,0,8.81-4,11.79,11.79,0,0,0,8.81,4h8.67a11.88,11.88,0,0,0,11.87-11.87v-29l12.83,27.24L625.38,173l-.09.2-.09.2a16.23,16.23,0,0,0-1.38,6.31,14.59,14.59,0,0,0,5.41,11.41,16,16,0,0,0,10.37,3.77,15.46,15.46,0,0,0,8.5-2.56,15.87,15.87,0,0,0,5.78-6.86l35.72-75.83,0-.11.05-.1a15.76,15.76,0,0,0,1.35-6.39A15,15,0,0,0,685.93,91.75Z" class="TextBorder-sc-xbrr87 kGVMsD"></path><path d="M399.65,125.47q0-12.91-6.88-20.52t-18.7-7.59a27.9,27.9,0,0,0-14.65,3.86,26.1,26.1,0,0,0-10,10.85,35,35,0,0,0-3.56,16.05q0,14.12,8.09,22.26T376,158.52a37.26,37.26,0,0,0,9.6-1.33,38.24,38.24,0,0,0,9.23-3.74q4.34-2.4,4.34-5.9a5.12,5.12,0,0,0-1.09-3.38,3.41,3.41,0,0,0-2.77-1.33,6.63,6.63,0,0,0-2.72.78c-1.08.53-1.75.87-2,1a56.29,56.29,0,0,1-6.87,3.13A22.17,22.17,0,0,1,376,149q-16.77,0-18-18.7h37.28Q399.65,130.29,399.65,125.47Zm-41.62-3a20.58,20.58,0,0,1,5.07-11.71q4.22-4.47,11.22-4.47T385,110.69c2.54,2.93,3.92,7.14,4.17,11.77ZM680.93,103a5.63,5.63,0,0,1-.48,2.29l-35.78,76a5.68,5.68,0,0,1-2.11,2.59,5.28,5.28,0,0,1-3,.91,6,6,0,0,1-3.92-1.45,4.49,4.49,0,0,1-1.75-3.62,6.57,6.57,0,0,1,.6-2.41l10.57-22.51-23.28-49.46a4.92,4.92,0,0,1,1.45-6,6.66,6.66,0,0,1,4.34-1.57,5.36,5.36,0,0,1,5.19,3.38l18.7,41.5,18.58-41.38a5.25,5.25,0,0,1,2.11-2.66,5.59,5.59,0,0,1,2.95-.84,5.84,5.84,0,0,1,4,1.57A4.84,4.84,0,0,1,680.93,103ZM611,81.21v75.31a1.76,1.76,0,0,1-1.76,1.76h-8.67a1.76,1.76,0,0,1-1.76-1.76V81.21a5.41,5.41,0,0,1,1.69-4.34,6.43,6.43,0,0,1,4.34-1.45,6.66,6.66,0,0,1,4.41,1.45A5.32,5.32,0,0,1,611,81.21Zm-26.29,0v75.31a1.76,1.76,0,0,1-1.76,1.76h-8.67a1.75,1.75,0,0,1-1.75-1.76V81.21a5.41,5.41,0,0,1,1.68-4.34,6.44,6.44,0,0,1,4.35-1.45,6.63,6.63,0,0,1,4.4,1.45A5.29,5.29,0,0,1,584.7,81.21ZM414.87,158.28a1.57,1.57,0,0,1-1.57-1.57V103.39a5.44,5.44,0,0,1,1.75-4.17,6.21,6.21,0,0,1,4.4-1.62,5.71,5.71,0,0,1,4.22,1.56,5.56,5.56,0,0,1,1.57,4.11v2.62a.66.66,0,0,0,1.21.37,19.24,19.24,0,0,1,6.88-6.13A24.39,24.39,0,0,1,445,97.36q21.11,0,21.11,23.76v35.59a1.57,1.57,0,0,1-1.57,1.57h-9a1.57,1.57,0,0,1-1.57-1.57v-35q0-7.49-3-11t-9.23-3.5q-7.36,0-11.82,4.58t-4.47,12.31v32.57a1.57,1.57,0,0,1-1.57,1.57Zm68.54,0a1.34,1.34,0,0,1-1.34-1.34V103.51a5.47,5.47,0,0,1,1.75-4.4,6.46,6.46,0,0,1,4.4-1.51,6.24,6.24,0,0,1,4.34,1.51,5.57,5.57,0,0,1,1.69,4.4v53.43a1.34,1.34,0,0,1-1.34,1.34Zm11.81-79.37a7.06,7.06,0,1,1-7.06-7.07A7.06,7.06,0,0,1,495.22,78.91ZM546.65,148v8.45a1.82,1.82,0,0,0,1.82,1.81h8.07a1.81,1.81,0,0,0,1.82-1.81V121.24q0-12.06-5.73-18t-17.44-5.91a46.38,46.38,0,0,0-11,1.38,41.44,41.44,0,0,0-9.89,3.68,10.88,10.88,0,0,0-3.32,2.72,5.24,5.24,0,0,0-1,3.19,5,5,0,0,0,1.14,3.38,3.72,3.72,0,0,0,3,1.33q1.32,0,4.59-1.81a59.71,59.71,0,0,1,8.2-3.14,28.56,28.56,0,0,1,8-1.08c4.1,0,7.08,1,8.93,3s2.77,5.26,2.77,9.77v3.49h-2.77q-13.39,0-21,1.57t-11,5.25c-2.21,2.46-3.32,5.81-3.32,10.08a17.09,17.09,0,0,0,2.71,9.4,18.24,18.24,0,0,0,7.55,6.58,23.83,23.83,0,0,0,10.61,2.35,20.14,20.14,0,0,0,10.56-2.71A17,17,0,0,0,546.65,148Zm-15.2,1.45a11.4,11.4,0,0,1-7.84-2.77,9.09,9.09,0,0,1-3.14-7.12,7.39,7.39,0,0,1,2.18-5.73c1.44-1.33,3.86-2.27,7.24-2.84a94.34,94.34,0,0,1,14.47-.84h2.17v3.14A16.37,16.37,0,0,1,542.31,145,14.16,14.16,0,0,1,531.45,149.47ZM334,99.22a6,6,0,0,0-4.4-1.62,6.08,6.08,0,0,0-4.4,1.56,5.6,5.6,0,0,0-1.63,4.23v5.07a19,19,0,0,0-7.78-8.21,23.77,23.77,0,0,0-11.89-2.89,24.87,24.87,0,0,0-23,14,33.33,33.33,0,0,0-3.38,15.32A33.91,33.91,0,0,0,280.83,142a24.39,24.39,0,0,0,9.35,10.25,26.24,26.24,0,0,0,13.75,3.62,24,24,0,0,0,12.07-3,18.51,18.51,0,0,0,7.72-8.26v9.29q0,16.77-16.65,16.77a30.46,30.46,0,0,1-8.93-1.15,61.24,61.24,0,0,1-8.08-3.2l-.09-.05a2.19,2.19,0,0,0-3,1.06l-2.26,5.14a2.17,2.17,0,0,0,.89,2.77h0q8.68,5,21.71,5,14,0,21.17-6.88T335.66,153V103.51A5.8,5.8,0,0,0,334,99.22ZM319.13,141q-4.45,5.19-12.3,5.19T294.4,141q-4.59-5.19-4.58-14.36t4.52-14.36q4.53-5.18,12.49-5.18t12.36,5.25q4.41,5.24,4.41,14.29T319.13,141Z" class="TextContent-sc-tx35cn hoXcGq"></path></g></svg>