<svg xmlns="http://www.w3.org/2000/svg" viewBox="0 0 25 25" aria-hidden="true"><g><path d="M2.59 7.03a.778.778 0 0 1-.66-1.2C3.1 3.98 4.74 2.46 6.67 1.44a.784.784 0 1 1 .73 1.39c-1.69.9-3.13 2.22-4.15 3.84-.15.24-.4.36-.66.36Z"></path><path d="M2.13 18.75c-.28 0-.55-.15-.69-.42C.5 16.54 0 14.53 0 12.5a.781.781 0 0 1 1.56 0c0 1.77.43 3.54 1.26 5.1a.784.784 0 0 1-.69 1.15Z"></path><path d="M12.48 25c-2.36 0-4.66-.67-6.65-1.93a.787.787 0 0 1-.24-1.08c.23-.36.71-.47 1.08-.24 1.74 1.1 3.75 1.69 5.82 1.69h.02c.43 0 .78.35.78.78 0 .44-.38.79-.8.78Z"></path><path d="M17.97 23.65a.79.79 0 0 1-.37-1.48 11.1 11.1 0 0 0 4.15-3.84c.23-.37.71-.47 1.08-.24.36.23.47.71.24 1.08a12.574 12.574 0 0 1-4.74 4.39c-.12.06-.24.09-.37.09Z"></path><path d="M24.22 13.28c-.43 0-.78-.35-.78-.78 0-1.77-.43-3.54-1.26-5.1a.784.784 0 1 1 1.39-.73c.95 1.79 1.44 3.81 1.44 5.83 0 .43-.35.78-.78.78Z"></path><path d="M17.98 2.92c-.12 0-.25-.03-.36-.09-1.56-.83-3.32-1.26-5.09-1.26h-.02a.781.781 0 1 1 .02-1.56c2.01-.01 4.02.49 5.81 1.43.38.2.53.67.33 1.06-.14.27-.41.42-.69.42Z"></path><path d="M9.49 17.19c-.61 0-1.21-.34-1.5-.93-.12-.23-.18-.49-.18-.75V9.49c0-.45.17-.87.49-1.18.31-.32.73-.49 1.18-.49.25.02.52.06.75.18l6.03 3.02c.82.41 1.16 1.42.75 2.24-.16.33-.42.59-.75.75l-6.03 3.02c-.24.12-.49.18-.74.18Zm.4-.88Zm-.37-6.93c-.09 0-.13.05-.13.1v6.03c.04.11.1.13.16.1l6.03-3.02c.08-.1.05-.17 0-.2L9.55 9.37h-.02Z"></path></g></svg>